<svg xmlns="http://www.w3.org/2000/svg" width="400" height="400">
  <g fill-rule="evenodd">
    <path d="M179 84c3 0 2 1-1 1-4 0-3 1 1 1l3 1 1 1h-3l-4 1-5 1c-3 0-7 2-7 4h-2l-9 1-2 1c-2 0-3 1-2 2 1 0 1 0 0 0l-4 2-3 1c-1 2-3 2-4 1l-3-1c-2 0-3 1-1 2l6 7h-4l-3-1-4 3a1578 1578 0 0 0-13 11l-1 1-1 1-1 1-2 2-2 1c-2 0-6 3-6 5h-2c-1-2-3-2-3-1l-1 1-1 1h1v2h1l1 1v1l1 1v2l-1 1 1 1v1s0 1 0 0l-1 1c0 1 0 2 1 1v4s0 1 0 0l1 1c0 1 0 1 0 0h-1v11-1l-1 1-3 3-1 1-3 2-1-1-2 1h-1 1c1 1-1 1-8 1l-9-1h-4l-1 1v2l-2 3-1 2c-1 1-2 3-2 7l-2 4-1 5-2 10-2 18c-1 5 0 13 1 14 1 0-3 4-6 5l-2 1-2 1v2l1 1h1l2-1 1-1h1l1-1h2l1-1h1l2-1h1l1-1h1l2-1h4v-1l1-1h2l2-1 3-1h-2l-4 1-2 1h-1l-1 1h-2l-1 1h-2l-1 1h-1l-2 1h-3l1-1c-1-1 1-1 1-1h1v-1l8-4v-1l-1-4v-14l1-5v-2l2-5 1-1v-1l1-2h1c0 1 1 2 1 0h1v-1h1v2h3l-1-1v-1l1 1c0 1 1 2 2 0v-1 1c0 2 2 2 2 0v-1 1l1 1 1 1 1 1 1 1h1l2 1 1 2 1 2 1 1h1l2 3v1l2 1 2 1 3 2h1l1 2 2 3 4 3v1l1-1h-1l-1-2-2-2h-1v-3l-1-1-1-2 1 1 1 1a106 106 0 0 0 4 5l2 3 2 2v1l2 2 2 2a110 110 0 0 1-1-1 1562 1562 0 0 1-8-12c-4-4-4-4-2-6l4-5 1-1-3-5-4-5 1-4 1-5 2-5 2-4c-1 0-1 0 0 0l2-2 1-2 3-13c0-1 1-1 4 1a62 62 0 0 0 8 8l2 2s1 0 0 0l2 1 3 4h1l1 1 2 3h2v1l2 1v1l3 2v1l2 2h1l2-4a182 182 0 0 0 8-16l1-2 2-4 1-2 1-2 2-2 1-2 1-1 1-2 1-2 1-1 1-2 1-2 1-1 1-1v-1l1-1 1-2 1-2 1-1 1-1 1-2 1-2 3-5 2-3h1l-3-1h-2v-5l1-5h1-1v-4l1-1h2l1-1h1l1-2h2l2-1h2l1-1h2c1-1 3 0 3 1 0 2 1 2 2 0a35 35 0 0 1 10-8l4-3 2-1 2-1 1-1h1l1-1h1l1-1h1l-1-1-1 1-5 1a175 175 0 0 1-12 5h-3l-1 1h-1v1l-8 1h-3l4-1 2-1h1l2-1 3-1 7-3-2-1h-1c0-1 0-1 0 0h-2c-2 0-2 0 0-1h-2l-4-1h-1s-1 0 0 0l-2 1c-2 0-2-1 0-1h-2l-5-1-2 1c-2 0-3 0-2-1h-2l-2-1h-3m49 1 1 1h1l-1-1h-1m-38 12-4 2-1-1h1l3-1h1m-6 3h-3l-1 1-1-1h2l2-1 1 1m-7 2h-2l1-1c1 0 2 0 1 1m-7 0h-2 2s1 0 0 0m3 1-1 1c-1-1 1-2 2-2s1 1-1 1m-5 0-1 1-2 1a140 140 0 0 1-16 8l-2 1-1-2-1-2-3-2h2l1 1 2 2 3-1 3-1 2-1 2-1 3-1 3-1 3-2h2m13 6v1l-1-1 1-1v1m-46 15h-1l-1 2-6 4c-4 3-3 1 2-3 6-4 7-5 6-3m149 10h-1l-1 1c0 1 0 1 0 0l1 2c1 2 1 2-1 2h-1l-2 1h-1 1v2h4l3-1 2-1 4-2c1-1-2-4-3-4h-2l-2-1-1 1m-164 4-2 1 2-3v2m-3 4h-1l-1 3a1168 1168 0 0 0-13 13l1-2v-2l4-5h2l1-2h1l1-1v-1l1-1 2-2 2-1v1m87 19v1l2-1h-2m-6 8c-2 2-1 3 1 3l2-2c0-2-2-2-3-1m2 9-7 1-2 1-1 2-1 1v1a73 73 0 0 0-10 19l-3 9c-1 2-1 2-2 1h-2l-5-6a882 882 0 0 1 28 29l-4-2-4-2c-1 1-2 3-1 4h-1l-1 1v2h-5a23 23 0 0 0 5 5c1 1 0 1-2 1s-2 2-1 3v9l-1 2v1h1l1 1a317 317 0 0 0-30 2c12-1 13-1 15 2a192 192 0 0 0 36 34l5 3 10 2 16 3h3l2 1h1-1a146 146 0 0 1-82-22l-2-1-2-1-2-2h-1l-2-2-3-2-2-2-6-5-8-8c-3-2 1 3 10 13 4 4 4 4 3 5l-5 1-5 2c-4 1-6 1-4-1l1-3a141 141 0 0 0-6-10 73 73 0 0 0-10-14l-4-5a77 77 0 0 0-5-6c-1-2-5-4-7-4v-3l1-2v-2l-2-1-1-1h-1c-2 0-2 1 0 1l1 1h2c-1 0-1 0 0 0v1l-1 2-1 1-1 1c1-1 1 0 1 1l-1 3v6c1-1 1-1 1 1l1 1s0 1 0 0v2l1 1v1l1 1v2l2-1v-3l2 3 2 3 1 2 1 2 1 2 2 2 1 1v1l1 1v1l2 2 2 3 1 2 1 2 1 2 2 1v1c0 2 1 2 3 1h3c1 1 0 1 13-3l5-1h1l-1-1-2-2c-4-6-4-6 0-2a159 159 0 0 0 64 31 529 529 0 0 1 17 2 303 303 0 0 0 58-5l3-1a625 625 0 0 1 30-10 391 391 0 0 1 32-18 310 310 0 0 1 43-22c5-2 7-3 6 0v1l2-1 1-1 1-2c0-2-2-2-5-2h-2l-4-3c-5-4-5-6-2-7-4 0-3 5 0 6 2 1 1 1-1 1l-2 1v1l-5 2-3 2-2 2-3 1-2 1-5 2h-1l-1 2a224 224 0 0 0-15 6c-3 1-6 4-8 7a70 70 0 0 1-19 16 203 203 0 0 1-19 9l-10 3h-2l-2 1-5 1-2 1-2-1 2-1a95 95 0 0 0 9-5l4-3 6-3 2-1 2-1 2-2 3-2a262 262 0 0 0 6-2c1 1 4 0 6-1l4-2 2-1h2l3-4a89 89 0 0 1 10-11l4-4 2-2 3-3a123 123 0 0 0 13-10l6-3a202 202 0 0 1 18-11l6-1 1 6-1 1c0 2 0 2-2 2l-3-1 1 1h5c0-1 0-1 0 0l-1-1 1-1 1-1v-2 1l-1-1 1-1v-2h-1 1v-1l-4-1-4 1h-4l-11 7-6 4-4 3-5 3-3 2-2 2-1 1-1 1h-1l-2 2-2 1v1l-2 2-3 2-4 4-5 4-6 4a29 29 0 0 0-6 3l-4 3c-8 5-16 6-23 2h-1l-6 1c-1-1 0-2 5-5l7-5 10-7 2-1 3-2a74 74 0 0 0 14-8 50 50 0 0 0 11-8 103 103 0 0 0 9-9l2-1 2-2 10-8c1-2 5-4 7-5s2-3 1-4l-3-2-3-3-8-12c0-2-1-3-2-3l-6 3-3 2-10 8-4 3-4 3a201 201 0 0 1-44 32l-5 2c-4 2-16 1-22-1-2-1-8-9-8-11l-5-10-1-3-1-3-2-3v-1l-1-3-1-4c-1-2-2-3-2-1v1l1 2 1 2-2 1h-2l-1 1 1 1c1 3 0 7-2 5-1-1-1-1-1 1l-1 3v-5l1-2 2-5v-1l1-5 1-2 1-1v2-3l1-5 2-4 1-4 1-2v-1l1-3-2 2-1 1-1 2-3 4v-2l-1-1h-1v1l-1-1v-2h-4v2l-1 2h-3v-1l1-1-1-1v-6c2 0 1-1 0-1h-3l-1-1-3-1h-3v4h-4l-1-1-3-1h-3v-3h3v-2c0-2-1-3-2-1m72 17h-3l-4 1-1 1-1 1h-1v3c-5 5-7 9-7 16 0 4 4 11 6 11l-1-1c-2-1-5-7-5-10 1-6 2-9 2-4v2l2-3-1-2h-1v-2l3-4 8-5 4-1 2 1c5 2 6 3 9 8v12l1-8c0-4-5-12-7-12 0 0-1 0 0 0v-1h1v-1l-6-2m-43 2c0 1 0 1 0 0v-1h1l-1 1m3 3-1 2-1 3a168 168 0 0 0-3 12c-3 7-3 10-4 27v8l2 4a46 46 0 0 1 3 4 163 163 0 0 1 6 8l2 2 3 2 4 2 8 5 7 3 3 1h4c2-2 8-3 9-2s0 1-2 2l-1 1h-1c-3 0-3 4-1 5l1 1-5-1c-4-2-8-3-10-1-2 1-14 2-18 1a30 30 0 0 1-15-7 80 80 0 0 1-14-14c-1-1-1-2 1-2l2 1c1 2 1 2 3 2h3l7 1h2l1 1c1-1 4 1 6 4a53 53 0 0 0 12 7l2 1 1 1v-1l-3-2-4-2-3-3-5-4c-5-4-11-10-11-12l-1-3a63 63 0 0 1 1-36 74 74 0 0 1 8-19l2-2m32 8c-2 1-2 3-1 3 1 1 4 0 4-1 2-3-1-4-3-2m3 1-1 1c-2 1-3 0-2-2l3 1m-163 3-1 1 2-2-1 1m76 8 10 8 4 3 2 2h-2l-3-2c-4-3-9-7-15-14-5-5-1-3 4 3m87 0 1 2v-2c1 0 1 0 0 0h-1m14 1-7 7-3 1h-6l-3-1 6 2 7-2 7-8-1 1m-12 0 1 1v-2l-1 1m-44 15v-6 6m-113-7 1 2h1l-1-1-1-1m-27 2-2 1-1 1h4l2-1c2 0 4 0 3-1h-6m-7 3h3l-2-1-1 1m45 7 1 1v-1l-1-1v1m-79 4-2 1-2 1h3l1-1 1-1h-1m82 1 1 1v-1l-1-1v1m2 3 1 1v-1c-1-2-2-2-1 0m65 0h1l1 1 2 1c1 0 1 0 0 0h-2l-1-1-3-1h2m-63 2 2 3-2-3s0-1 0 0m235 1-9 6c-2 2-2 3 1 1l1-1 4-3 4-2 2-2-3 1m-165 0v1l-2-1h2m6 2h-1l-1 1v1l-3 1-2 1h-4l-5 2 1-1 10-4 4-2 1 1m-73 1 1 2-1-2c-1-1-1-1 0 0m59 3-3 1 2-1h1m7 3 5 5a58 58 0 0 0 4 5l1 2c3 4 2 4-1 2l-5-1h-10l-1 1v-4l1-5 2-4c2 0 2-2 1-2v-1l3 2m-63 0 3 3 1-1h-1l-2-1-1-1m51 0-1 1h-2l1-1h1l1-1v1m10 10v2c1 0 2-1 1-2h-1m83 8h-1 1c1 0 1 0 0 0m-134 4 1 2v-1l-1-1m104 1h1-1c-1 0-1 0 0 0m2 1 1 1 1-1h-2m-105 4-5 4-3 2 3 5v1l1 1-1 2v3l3 2v1c0 2 0 2 1 1h1l-3 2-4 2-1 1-2 1h4l2-1h1l2-1h2l1-1v1h1l1-1c-1-1 0-1 1-1h1l2-1h1l1-1h2l1-1h2l1-1h2c1-1 1-1 0 0l-1-1h2l2-1h2v-1l1 1v-1l1-1h1l1-1h1a479 479 0 0 0-24-18l-4 3m8 0a436 436 0 0 0 19 15l-3 1-2 1h-1l-1 1h-2l-1 1-4 1h-3 1l2-1 1-1h1l1-1h1-4l-2-1-1-1-3-3-1-1v-3l1-1h-1l-4-1c-3-3-3-3 0-7l1-1 5 2m123 15-1 1-1-1h2m-121 6h-2 2m-3 1-1 1v-1h1" fill="#344e14"/>
    <path d="m240 82-2 1h-1l-1 1-8 3a55 55 0 0 0-13 8l-4 2-9 9-2 3-2 3a438 438 0 0 1-17 22 100 100 0 0 0-4 8 153 153 0 0 0-17 26 54 54 0 0 0-6 13v3c1 1 2 1 2 3v3l1 2 1 1 1 1 1 2 3 2c1-1 4-1 5 2l2 2 2 4 1 2 1 2 1-3 3-7 1-2 1-2 3-5a55 55 0 0 0 3-6l2-3a86 86 0 0 1 7-11l2-3 3-5a99 99 0 0 1 9-12l6-7 3-4 17-18c3-2 12-2 21 0l6 1a88 88 0 0 1 20 6 63 63 0 0 1 9 5c6 3 4 6-4 8l-5 2-3 1-3 1h-2l-3 2-4 1-13 7a325 325 0 0 0-21 48l1 2a116 116 0 0 0 12 30l2 3v1l1 1 1 2 2 2 2 2c1 0 1 0 0 0v-1l-1-1-1-2-2-2-1-2-1-3v-3l-1-2c-1-1-3-14-2-15l2-4c1-2 2-3 3-1s1 2 1 0l4-9c5-8 15-12 23-8 7 3 10 10 9 20a495 495 0 0 0-3 8v3l1-1 1-2 5-11c0-3 0-3 1-2l1 1 1 1 2 2a24 24 0 0 1 6 9v7c2 1 4 0 6-2l3-2 1-2 1-1v-1l1-1h2v-1l-1-1 1-1 1-1v-2l1-2 1-1 1-1-1-4v-2l-1-9-1-3v-7l-1-3-1-3-1-3v-3c1-1 1-1-1-3l-1-3-1-1-1-2-1-2-1-1-1-3v-4l-1 1-1-1v-3c0-2-1-3-3-3v-2l1-3 1-3 1-4v-4l1-1v-2l1-2 1-2c1-1 2-3 2-7 0-3 0-4 1-3l1 1h3c1 1 2 0 2-1h-1l-1-2-2-2-1-1-2-3 2-1c4 0 8 2 10 4l3 2c2 2 3 3 5 11a208 208 0 0 0 5 19l-1-3v-4a269 269 0 0 1-6-22c-1-3-2-6-1-7 0 0-4-5-5-4v-1l1-1-1-1h-1v-1h-1l-2-1h-1l-1-1h-1l-1-1h-1l-1-1-2-1h-2l-2-1-1-1h-2l-1-1h-1l-1-1h-3v-1h-2l-1-1h-2l-2-1h-1l-2-1h-1l-2-1h-3l-2-1h-3l-3-1h-16l-1 1v-1h-3v1-1h-13m75 15h-1c-1 0-1 0 0 0h1m5 2v1h1-2l-2-1h3m4 2 3 1-2-1s-1 0 0 0l-1-1v1m4 2 2 1-1-1h-1m-72 1a69 69 0 0 1 26 3c4 0 4 1 9 4l2 1-1 1-1 1-1 1-2 1-2 1c-3 3-8 4-12 4-2-1-4 0-4 1h-1l-5-1h-2c-3-1-9-2-20-2h-6l-1-1c0-1-1-2-5-2l-2-1h1l1-1c0-3 0-3 2-3l1-1 3-2 2-1 4-1 1-1 2-1 2-1 9 1m75 1 1 1-1-2v1m-177 88 3 3a80 80 0 0 1 5 4l-1-1-3-3c-2-3-4-3-4-3m15 15h1l-1-1v1m2 1 1 1 1 1 1 1-1-2-1-1h-1m83 13 2 3-1-3h-1m0 4 1 1v-1h-1" fill="#a1c338"/>
    <path d="m86 77-1 1-1 1s-1 0 0 0v1h-1l-1 1v1l-6 5-4 2c-6 4-7 5-10 4h-2v1l-2 1h-2v1h-1l-1 1h-1l-1 1-1 1h-1l-1 1-1 1h-1v1h-1l-1 1h-2l-1 2h10v-1l3-3 2-1 2-1 2-1 2-1 5-3 2-1 2-1 2-1 4 1 2 1h3l3 1h4c0-1 3-1 4 1h7l2-1 1 1h1l5 1 5 1 1 1v2l1 1h1l1-1v3c-1 1-1 1 1 1v-4h3l6 2c2-1 0-2-7-6-2-1-5-3-4-4l2 1h1l2 1 4 1 2-3 2 1h1l1 2c2 3 6 3 9 1l2-1 4-1 6-1c3-1 3-1 4-4s2-3 4-4 1-2-2-2l-2-1h-4v-1h-7l-7-1h-7l-5-1-2-1-1 1h-1l-4-1H99l-5-1h-8m160 5h1-1m68 15c-1 0-1 0 0 0h1-1m4 2h-1l2 1h2-1v-1h-2m4 2v1c1-1 5 4 5 4-1 1 0 4 1 7l3 8a157 157 0 0 0 2 10 212 212 0 0 0 4 17 201 201 0 0 0 8 27c8 20 8 21 12 20h4c2 1 3 0 3-1l-1-2v-2l-1-2-1-2v-1l-1-2v-2l-1-1v-2l-1-2v-1l-1-2v-2l-1-2v-2l-1-2v-2l-1-2v-2l-1-2v-4s-1 0 0 0l-1-1v-2l-1-2v-3l-1-2v-2l-1-2-1-3v-4l-1-3-1-1v-3l-1-2v-2l-1-1v-2l-1-1v-1l-1-1-1-1h-1l-1-2-2-2v-1l-1-1h-1v-1l-1-1h-2l-1-1-1-1-2-1-2-1-2-1-1-1-1 1m-77 3-2 1-1 1-4 1-2 1-3 2-1 1c-2 0-2 0-2 3l-1 1h-1l2 1c4 0 5 1 5 2l1 1h6a69 69 0 0 1 22 2l5 1h1c0-1 2-2 4-1 4 0 9-1 12-4l2-1 2-1 1-1 1-1 1-1-2-1c-5-3-5-4-9-4l-4-1c-2-1-10-2-22-2l-9-1-2 1m-129 0 1 1v-1c1 0 0 0 0 0h-1m-80 4v2l13 1h3a2157 2157 0 0 1-15-3m-3 3h-1l-2 2c1 1 4-2 4-2h-1m-6 3-3 1v1l4-2c1 0 1 0 0 0h-1m-6 3h1c1 0 1 0 0 0h-1m14 26c-1 1 0 2 2 3l3 3 4 4 4 3 5 4c2 2 4 2 6 2h3v-1l-4-1-1-1-1-1h-2l-1-1-3-3-2-1-2-2-1-1-1-1-2-1-1-1h-1l-1-2-2-1-2-1m80 19v2c0 3-2 8-6 14l-4 8a303 303 0 0 0-1 12l2 2 1 2h2l-2-4 1 1h1l7 2 13 7h4l2-2h2l1-2 1-2 1-1h1c0-2 3-3 6-3h5a180 180 0 0 0 11 9 615 615 0 0 0-38-37l-10-8m246 39h-1v4l1 2 6 7 2 2 2 4 1 1 10 6 5 2c2 0 4-1 3-2h-1l-2-2-2-1-4-5h-1l-1-1-4-3a262 262 0 0 0-14-14m-254 8c-2 3-2 4 0 2h3l2 1 2 1c4 3 16 8 16 7l-5-3a137 137 0 0 1-11-7c-4-3-4-3-7-1m11 24 2 3 1 1v1l1-1-1-2-3-2m4 5v1l1 1v1l1 1h1l-1-2-1-2h-1m264 2-1 1 2 1c1 2 4 2 3 0-1-3-2-3-4-2m7 6v1l1-1h-1M1 291H0h4-3" fill="#c9ab6d"/>
    <path d="m94 77 5 1 2-1h-7m27 1h2-2s-1 0 0 0m20 2h2-2m18 2 2 1c2 0 2-1 0-1h-2m4 1-1 2c-2 0-2 1-4 4-1 3-1 3-4 4l-6 1-4 1-2 1c-3 2-11 3-11 2l-4-1c-1 0-1 1 1 3s2 2-2 2l-3 1-5 2-4 2-3 1c-2 0-5 3-6 6l-2 3-1 3-2 3-1 1c-1 5-1 6-3 3s-5-4-16-7c-4-2-9-2-12-2h3l6 1 5 2c7 2 12 5 7 5h-1l2 1 1 1h1v1c1 1 2 0 2-1v-1l1 1c3 3 3 3 5-1a66 66 0 0 1 5-10c2-4 6-7 8-7l2-1 1-1 9-4h8c-3-2-3-4 0-4l6-1 16-6c3 0 3-1 4-4s2-4 5-4l2-2h-3M54 118a357 357 0 0 1-15 2l-3 1h9l5-1h-2c-4-1-4-1-1-1l5-1a109 109 0 0 1 2 0m-22 4h-3c-2 0-1 1 1 1l3-1 1-1-2 1m-9 1c-1 1-1 1 1 1l2-1-2-1-1 1m55-1 2 1-1-1h-1m-70 1 1 1H8c0 1 0 2 1 1l-1-2m85 6 1 2 1-1-2-1m2 3 1 2v-2h-1m-60 11h2l-1-1-1 1m-2 0v1h1l-1-1m-1 4v2l1-2h1-2m0 3-1 1v1l-1 1v1l-1 1v1l-3 5v1l-1 1-1 1v2l-1 1-1 1v3l1-1v-1l1-1 1-2 1-2 1-1v-1l1-2 2-1h1v1l3 4 1 1h-4l-1-1a345 345 0 0 1 7 9l-1 2c0 2 0 3-1 2v-1h-2l-1-1h-1l-3-1-2-1-3-1h-2v2c0 5 1 9 2 9l1 1v-1l-1-1h-1l5 1c1 2 1 5-1 5h-1l-1 1-1 1h-1l-1 2-1 1-1 2v3c-1 1 0 3 1 2v-6h1c1 0 1 0 0 0l1-1h3v9h-1c-2-1-2 3 0 4l1 2 1 1-1 2h-6v-2c0-1-2-1-2 1s0 3 1 2l2 1h4l11-1 1 1c-2 0-3 1-1 1l2 1 1 1c2 0 4 1 4 3l1 2v4l-5 3h-2c-1 2-11 7-12 7v2c0 2 0 2 1 1v-1l2-2c2-2 3-1 3 2v2l-1 1 2 4c3 3 4 4 5 3s1-2-1-2h-1l1-2c2-1 4-1 4 1l1 1 2-2c2-1 3-2 2-3l-1-1-1-1-1-1h-2v-1l2-1v-1 1c0 2 2 2 2 0l1-2v-3l2-6 1-2 1-3 5-14-2-8 1-6v-2l1-3 4-9 4-7v-4l2 1 12-1h-1l-1-1h-2l-1-1h-1l-1-1h-1l-1-1h-2v1l-1 1-4-1-2-1-4-1-1-1-2-1-2-2h-1l-1-2-2-1 1 2v2h1v1l-1 1-1-1-5-1-1-1-1-2v-2c-1-1-2-2-3-1l-1-2h-1m0 5 1 1 1 1-1 2h-1c-1 1-2-1-1-2v-2h1m22 2 1 1 1-1h-2m62 4v1c1-1 1 0 3 1l1 2-1-2-3-2m-63 2-3 3v-3h3m68 2 1 1 1 1-1-1-1-1m-7 5-5 8-3 7-1 5-1 7 7 8-1 2-5 5 7-7-2-2a40 40 0 0 1-5-6l-1-1 1-5 1-5 4-8 4-8c1-2 0-2 0 0m13 1 2 1-2-1-1-2 1 2m-94 1c-1 0 0 0 0 0h1-1m101 6 2 1 1 1-1-1-2-1m10 9a10698 10698 0 0 0 16 19l-1 1-1 2-1 2-1 2-1 1v1l-2 3-1 2 1 1h-2l-4 1h-1l-1 2-2 2-1 2v4c0 5 1 7 2 7l2 2 1 1v5a35 35 0 0 0 1 7l2 6h1l-2 1-5 1h-4l-2-1c-2-1-2-1-1 1l3 1 16-2c5 0 6 0 4-2-2-1-2-1-2-7l-1-6v-1l-1-2v-8l1-1c0-1 2-3 4-3l1-2 2-3 1-1 3-3 2-2c2-2 4-2 6 0l3 2a1137 1137 0 0 0-35-35M31 203l1 1h-2l-2 1-2-2v-1h2l3 1m-12 0v1h-1 1v-1m96 3c0 1 2 3 3 2l7 6 5 3 5 3h1l1 1a58 58 0 0 0-17-12l-5-3m9 5 8 6a657 657 0 0 0-8-5m-20 1c0 1 1 4 4 6l-2-3-1-2-1-1m-73 1h1v-1l-1 1m-13 1c0 1 0 2 0 0 0 0-1 0 0 0m153 2-1 1c-1-1 0-2 1-2v1m-152 2 1 1-1-1c0-1 0-1 0 0m90 2a86 86 0 0 0 9 11l3 5-2-3-1-2-1-2-3-4-1-1-2-2-1-2-1-1v1m159 0v1l1-1h-1m-248 1v1-1c0-1 0-1 0 0m3 1c-2 1-2 3 0 2 1 0 1 0 0 0-1-1 0-1 1-2 2 0 2 0 1 1s-1 1 0 0l2-1h-4m-1 6v1-1c0-1 0-1 0 0m101 3 1 1a128 128 0 0 0 14 4l-2-2h-2l-1-1c-1 0-9-3-10-2m-99 14 1 2 1-1-1-4-1 3m104 1 1 1-1-1-1-2 1 2m5 8 3 5-2-4-2-4 1 3m-108-1v1l1 2 1-1c1 0 0 0 0 0-2 0-2-2-1-2h-1m283 13-2 1c-1 0-4 2-3 3l2-1h2l3-3h-2M97 279c-1 0-2 1-2 3v1l-1 2c1 0 1 0 0 0l-1 1-3 4h-1v1l-2 2-1 2-1 1s-1 0 0 0h-3c-1 0-1 1 1 1h1l1 1 11-10 1-2 1-3c0-2 1-2 3 0v2l2 5h1l2 1c1 0 2 0 1 1l1 2 1-1h1v2l-1 1c0 1 0 1 0 0h-1l2 1v-1l2-1c1-1 2 0 0 2v6l1 2c1 1 0 2-1 3l-1 1-2 1-2 1h-2l-2 1 1 3h-2a254 254 0 0 0-18-3l-7-1a379 379 0 0 0 29 6l17-1c2 0 3-1 1-2l-1-2-1-2h1l4-2c5-1 7-3 5-4-1-1-2-3-1-4l1-2 1-1 3-1c2-2 1-2-1-4l-4-3c-3-2-7-2-9-1l-5 2-8-3a401 401 0 0 0-12-8m15 12v1c0 1-1 1-1-1h-1l-1-1 3 1M0 293h1l1 1h2c2 0 2-1 0-1H0m30 1 2 1c1 0 2 0 1-1h-3m-23 1 3 1h2l2 1h1l-2-1-3-1H7m34 0 1 1 1-1h-2m6 1h1l2 1c2 0 2 0 1-1h-4m-30 1 1 1h2l1 1v1l1-1h1c1 0 2 0 1 1h3l1-1h-2a115 115 0 0 0-9-2m51 0h2-2m-39 3h1c2 0 2 0 0 0h-1m4 1 2 1-1-1h-1m4 1h1-2 1m3 1 2 1v-1h-2c0-1 0 0 0 0m4 1h1c1 0 1 0 0 0h-1c-1 0-1 0 0 0m4 1 11 3-4-2a801 801 0 0 1-7-1m12 3h4-4m6 3 2 1-1-1h-1m61 4c-1 1 0 1 1 1v-1h-1" fill="#98773b"/>
    <path d="m235 83-1 1h-1l-1 1h-1l-1 1-2 1-4 1-4 2c-1 2-3 2-3 2l-4 3-4 3-9 8-1 1-1 2c0 1-1 1-2-1 0-2-2-2-3-1l-1 1h-2l-1 1c2 0 3 5 1 6l1 1-1 3-1 2h-1l-1 1-1 2-2 2-2 5-1 2-1 1-4 6-1 1-1 2-1 1-1 1v2l-4 5-1 2-1 1-1 2-1 2-1 1-2 3-2 3-1 3-2 2-2 5-3 8c-3 5-3 5 4 11h1l-2-1c1-1 2 0 5 3l2 2 1 1-2-1-1-1-1-1-1-1 15 15c3 3 3 3 4 0l1-4a180 180 0 0 1 23-41h5c2 1 2 3 1 3l-1 1-1 1v2l1 1 1 1 1 2-1 1h6v4h2l2 1 1 1h3l2 1v1l1-1 1-1 2 1c0 2 1 2 1 1 1-2 2-2 3 0l1 1 1 1c0 1 3 1 4-1 2-2 3-1 2 1l-1 2-4 10v9l1 4 1 2 1 2v2l1 1 2 6 6 11c6 11 9 14 21 14a45 45 0 0 0 19-6 61 61 0 0 0 13-7l2-2 2-1 1-2 2-1 2-1 5-4a303 303 0 0 0 19-17 87 87 0 0 1 12-9l5-4c2-2 5-1 6 2l1 3 3 4 6 8c5 5 5 6 2 8l-3 2-2 1-1 1-2 2-1 1-2 2-1 1v1a20 20 0 0 0 6-1l1-1 3 1h3l2-1 2 1h3c1 1 3 1 4-1l2-1v-1h-2l-1-1c0-2-2-3-3-2s-2 0-2-1l-1-2-1-1 5 2 1 1h1l1 1 3 2 5 1h1a52 52 0 0 1-30-26l-2-4-2-3-3-4-2-7-6-14a205 205 0 0 1-9-32l-4-20c0-3-2-6-4-7l-3-2c-2-2-6-4-10-4l-2 1 2 3 1 1 2 2 1 2h1c0 1-1 2-2 1h-3l-1-1c-1-1-1 0-1 3 0 4-1 6-2 7l-1 2-1 2v2l-1 1v4l-1 4-1 3-1 3v2c2 0 3 1 3 3v3l1 1 1-1v4l1 3 1 1 1 2 1 2 1 1 1 3c2 2 2 2 1 3v3l1 3 1 3 1 3v7l1 3 1 9v2l1 4-1 1-1 1-1 2v2l-1 1-1 1 1 1v1h-2l-1 1v1l-1 1-1 2-3 2c-2 2-5 3-6 1v-6l-1-3-5-6-2-2-1-1-1-1c-1-1-1-1-1 2l-5 11-1 2-1 1v-3l1-4 1-2a495 495 0 0 1 1-7c0-18-22-23-32-7l-4 9c0 2 0 2-1 0s-2-1-3 1l-2 4c-1 1 1 14 2 15l1 2v3l1 3 1 2 2 2 1 2 1 1v1c1 0 1 0 0 0l-2-2-2-2-1-2-1-1v-1l-2-3v-1l-2-3a116 116 0 0 1-11-28l1-4 1-4 2-5a40 40 0 0 0 4-7l1-3 12-25a63 63 0 0 1 17-8l3-2h2l3-1 3-1 5-2c8-2 10-5 4-8l-3-2-6-3a308 308 0 0 1-18-6c-8-2-25-3-28-1a139 139 0 0 0-28 30l-8 11a90 90 0 0 1-5 8 131 131 0 0 1-7 11 23 23 0 0 1-2 4l-3 5a40 40 0 0 0-4 7l-1 2-3 7-1 3-1-2-1-2-2-4-2-2c-1-3-4-3-5-2l-3-2-1-2-1-1-1-1-1-2v-3c0-2-1-2-2-3v-3l1-3 5-10a266 266 0 0 0 5-10 100 100 0 0 0 7-10 24 24 0 0 1 3-5 153 153 0 0 1 3-3 100 100 0 0 1 7-12l6-8a438 438 0 0 0 20-23 47 47 0 0 1 5-3l12-7a38 38 0 0 0 9-3v-1h-2m-11 2-2 1h-3l-3 1h-3l-1 1-1 1-2 2h-1l-2 1h-2l-1 1h-1l2 1 1-1h2l1-1h1l2-1 4-1a118 118 0 0 0 12-5h-3m60 47 3 1 2 1 4 4-10 4-2 1h-3l-1 1h-1v-1c1 0 1 0 0 0-1-1-2 0-5 2l-3 1h-2l1-1 2-1v-1l1-1 3-5c1-2 2-3 4-3l1-1c1-2 3-2 6-1m-78 28c1 1 0 2-2 2v-1l2-1m0 4h-1v-1l1 1m-4 5 1 1v-1h-1m-5 4h1-1c-1 0-1 0 0 0m148 16 1 2-2-3 1 1m-113 1v1c0 1 0 1 0 0v-1m46 6 4 4v1l-1 1 3 5v8l-3 8c-3 4-6 6-8 6l-3 1h-5l-4-2c-5-2-9-14-5-21v-2l4-7c4-4 12-5 18-2m-108 12h-1v-1l1 1m61 0-1 2-1 5v1l-2 5 1 2c2 1 3-3 2-5l-1-2 1-2 1-1 1-3c0-3-1-3-1-2m-59 1 1 1 1 2-1-1-1-1-1-1h1m207 8 1 1v-2l-1-1v2m-125 3-1-1h1v1m2 2v2l1 1-2-2c-1-2 0-3 1-1m-30 1c0 2 0 2 1 1l-1-1c0-1 0 0 0 0m29 3v1l-1-1h1m141 18 1 2 1 1v-1l-2-2v-1 1m-6 3c1 2 1 2 3 2h1-1l-3-3-2-1 2 2m7 2 3 1c0 1 0 0 0 0l-1-1-1-1h-3l2 1m0 6v1-1h1v-1l-1 1m-8 1-1 1-4 2-6 2-3 2h-1l-5 3-4 2a98 98 0 0 0-9 5 71 71 0 0 0-7 4l-3 1a810 810 0 0 1-51 24 270 270 0 0 1-14 4 202 202 0 0 1-82 1 193 193 0 0 1-29-10 89 89 0 0 0-12-8l-1-1h-1l-1-1h-1v1h1l3 2 3 3h1l1 1 4 3 4 2c0-1 0-1 0 0l1 1 4 3 2 2 2 1h2l1 1 4 2h-2c-1 0-1 0 0 0l1 1 1-1h3l2 1v2l2-1 2 1h2l1 1 1 1c1 0 1 0 0 0l-1-1h1l2 1v1h1l1-1v1l1 1h1c1 0 1 0 0 0l1-1 1 1 1 1h8l3 1h2l3 1 5 1h-1l2 1c1 0 0 0 0 0v-1h2l1 1 1 1s1 0 0 0h1l5-1 7 1h21l4-1 4-1h6l2-1 2-1h2l3-1h2l2-1h3l2-1h2l1-1h1l1-1 1-1h2l2-1 1-1h1l4-2h2l1-1 2-1h1l1-1h1l1-1h2v-1l2-1h1l1-1h1l1-1h1l1-1h1v-1h1l1-1 2-1 2-1 1-1h1l1-1 1-1h1v-1h2v-1h1c1 0 0 0 0 0h-1l1-1h1l1-1h2l1-1 1-1v-1h2v-1h1c0-1 0-1 0 0l1-1 1-1 2-1 1-1 2-1 1-1v1-1l1-1 2-1v-1h2v-1h1v-1h1v1l1-2h1l1-1s0-1 0 0l1-1c-1 0 0 0 0 0l2-1 1-1 3-2 1-1 1-1h1l1-1 1-1 2-2h1v-1h1l1-1v-1l-1 1h-1l-1 1v-2c1-1-1-2-3-1m-70 3a174 174 0 0 0-24 15h6l5 1 4 1 2-1 2-1 2-1 1-1 1-1h1l1-1h6l2-2 2-1 1-1h-1l-2-1h-3l-1-1-2-3c0-1-1-2-3-2m60 8-1 1 1-2v1m-69 0-3 3h-2l-2 1c-1-1 2-3 3-3l2-1h2m67 2-2 1 1-1 1-1v1m-7 5-1 1-1 1c-1 0-1-1 1-2h1m-6 5h-1l-1 1v-1h1l1-1v1m-212 7h1-1l-1-1 1 1m195 4-1 1-1 1-1 1h-1l2-2 1-1h1m-28 16h-1l-1-1 2 1m-9 4-1 1v-1h1m-121 1h2-1v-1h-1v1m113 2-1 1v-1h1m-90 5h1l-1-1v1m12 2h1l-2-1 1 1" fill="#6a8c33"/>
    <path d="m162 82 1 1 1-1h-2m4 1-2 2c-3 0-4 1-5 4s-1 4-4 4a431 431 0 0 0-22 7c-3 0-3 2 0 4h-8a73 73 0 0 1-10 5l-2 1c-2 0-6 3-8 7l-1 3-4 7c-2 4-2 4-5 1l-1-1v2l1 2-1 1h2v2l2-1c1-1 2-1 3 1h2c0-2 4-5 6-5l2-1 2-2 1-1 1-1 1-1 1-3 1-1 2-2 1-1h1l1-1 2-1 2-1a1578 1578 0 0 1 9-3h4l-6-7c-2-1-1-2 1-2l3 1c1 1 3 1 4-1l3-1 4-2c1 0 1 0 0 0-1-1 0-2 2-2l2-1 9-1h2c0-2 4-4 7-4l5-1 4-1h3l-1-1-3-1c-4 0-5-1-1-1 5 0 4-1-1-1l-4-1h-7m64 1v2h1l1-1 1-1h-3m-45 1 3 1h2l-5-1m42 0-1 1-1 1 1 1v-1h-1l1-1 1 1h1l1-1-2-1m-31 1 1 1 2-1h-3m9 2h3-3m15 0-2 1 3-1 2-1-3 1m-9 1-7 3-3 1-2 1h-1l-2 1-4 1h3l8-1v-1h2-1l-2-1h1l1-1h2l2-1h1l2-2c0-1 0-1 0 0m0 2-2 1h-2v1h1l1-1 2-1 1-1-1 1m-22 6-3 1h-1l1 1 4-2h-1m-8 3h-2l1 1 1-1h3l-1-1-2 1m-6 2h2c1-1 0-1-1-1l-1 1m23 0h-2l-1 1h-2l-2 1h-2l-1 2h-1l-1 1h-2l-1 1v4h1-1l-1 5v5h2l3 1h-1l-2 3 1-1 1-2 1-1 1-1v-1h1l1-1v-1l1-1v-1l-1-1c2-1 0-6-1-6l1-1h2l1-1c1-1 3-1 3 1 1 2 2 2 2 1l1-1c2-1 3-6 2-6h-3m-26 1h1c2 0 2-1 1-1l-2 1m8 6 1 1v-2l-1 1m-125 9-7 1c-5 0-4 1 3 1h-1v1l1-1a60 60 0 0 1 18 1l5 1h3v-1l1 1 1 1v-1l1 1v1h1v-1l1 1 1 1h2l1 1 5-1c1 0-4-3-9-4l-4-1c-5-2-18-3-23-2m-13 3h1-1c-1 0-1 0 0 0m4 0h2-2m233 11-1 1-1 1c-2 0-3 1-4 3l-3 5-1 1v1l-2 1-1 1h2l3-1c3-2 4-3 5-2 1 0 1 0 0 0v1h1l1-1 3-1h1-3v-2h-1 1l2-1h1c2 0 2 0 1-2l-1-2c0 1 0 1 0 0l1-1h1l1-1 2 1h1l-3-2h-6m11 3 2 1-2-1c0-1 0-1 0 0m-193 0v1c0 1 0 1 0 0v-1m1 2 1 3v-2l-1-1v-1 1m79 1-1 1 1-1c1 0 1-1 0 0m-77 2v2-2m75 1-1 1 1-1c1-1 1-1 0 0m112-1v1l1-1h-1m-188 4v1h1c0-1 0-2-1-1m1 4-1 1h1v-2 1m0 3v1c1 1 1 0 1-1h-1m105 9c1 1 0 2-1 2h1c1 0 2-1 1-2h-1m-90 0v3l1-1 1-1c1 0 1 0 0 0l-2-1m-17 4-1 1 1-1c2-1 1-2 0 0m16 3a34 34 0 0 1-2 7l3-10-1 3m91-3h1l-1-1v1m-109 1v1h-1 2v-1h-1m-22 1 1 1H63l-2-1v4l-4 7-4 9-1 3v2l-1 6 2 8-5 14-1 3-1 2-2 6v3l-1 2c0 2-2 2-2 0v-1 1l-2 1v1h2l1 1 1 1 1 1c1 1 0 2-2 3l-2 2-1-1c0-2-2-2-4-1l-1 2h1c3 0 2 1-1 4l-5 3-2 2c-2 0-2 2 0 2 0 0 1 0 0 0h-2v-1c-1 1 0 2 1 2l2-1 1-1v1h1l1-1 1-1h1l1-1 2-1 2-1 5-3h1l1-1h1l2-1h-1 1l1-1h1l2-1h1l1-1 2-1h1-4l-1 1h-1l-1 1-2 1h-1l-1-1v-2l2-1 2-1c3-1 7-5 6-5-1-1-2-9-1-14a126 126 0 0 1 4-28 51 51 0 0 1 3-9 22 22 0 0 1 3-9l2-3v-2l1-1h7a630 630 0 0 1 5-2h-2l-3-1h-1c-1 0-1 0 0 0m126 1-1 1h1l1 2c0 2-2 3-4 2-1-1-1 0-1 1l-1 1v1l-1 2-1-1v1l-1 1-2 3a279 279 0 0 1 1-1l2-1 7-1c1-2 2-1 2 1v2h-3v3h3l3 1 1 1h4v-2l1-2 1-2v-2h-6l1-1-1-2-1-1-1-1v-2l1-1 1-1c1 0 1-2-1-3h-5v1m3 2v1l-1-1h1m-182 2v7-3a97 97 0 0 0 0-4m177 2h-1c-1 0-1 0 0 0h1m-87 3-1 1 1-1 1-2-1 2m22 0 1 1v-1h-1m-26 5-2 6a239 239 0 0 1-2 9l4 5 3 4-6 8c-1 1-1 1 3 5a856 856 0 0 1 26 37c5 9 4 8 14 8a273 273 0 0 1 35-2l-1-1h-1v-1l1-2v-9c-1-1-1-3 1-3s3 0 2-1l-1-1-4-4h5v-2l1-1h1c-1-1 0-3 1-4l4 2 4 2c1-1-1-2-2-3a217 217 0 0 1-34-33l17 14-1-1-3-2a1889 1889 0 0 0-24-22v1l-2-2a356 356 0 0 1 11 11 532 532 0 0 1 19 21c-2-2-4-2-6 0l-2 2-3 3-1 1-2 3-1 2c-2 0-4 2-4 3l-1 1v8l1 2v1l1 6c0 6 0 6 2 7 2 2 1 2-4 2l-16 2c-2 0-2 0-7-8a316 316 0 0 0-29-41l6-7 1-2-7-8c-1-2 1-12 4-16l2-3-3 3m30-1 2 1-3-2 1 1m-116 1 1 1v-1h-1m1 1h1l1 1v1h1l1 2 1 1v-4l-5-1m199 2-1 1v6l1 1-1 1v1h3l1-2v-2h4v2l1 1v-1h1l1 1v2l3-4 1-2 1-1h-4l-1-1-1-1c-1-2-2-2-3 0 0 1-1 1-1-1l-2-1-1 1-1 1v-2h-1m123 4 2 3-1-2-1-1m-112 3c0 1 0 1 0 0v-1 1m36 4c-6 1-13 7-12 10v2l-2 7c0 3 1 1 1-3l7-10v-3h1l1-1 1-1 3-1h4l6 2v1h-1v1c1 0 4 3 6 7l1 2-3-6 1-1c1-4-7-8-14-6m-39 1v1c0 1 0 1 0 0l1-1h-1m120 0-6 5a24 24 0 0 0-5 3l-6 5-4 4a72 72 0 0 0-4 3l4-3 4-3a61 61 0 0 1 13-10l6-3c1 0 2 1 2 3a73 73 0 0 0 11 15l3 2c1 1 1 3-1 4s-6 3-7 5a191 191 0 0 1-16 13 103 103 0 0 1-18 15l-4 3a74 74 0 0 1-13 7l-2 1-10 7-7 5c-5 3-6 4-5 5l6-1h1c7 4 15 3 23-2l4-3 2-1 4-2 6-4a219 219 0 0 1 14-12v-1l2-1 2-2h1l1-1 1-1 2-2 3-2 5-3 4-3 6-4 11-7h5l-2-1-4-1-3-2-1-1h-1l-1-1-5-2 1 1 1 2c0 1 1 2 2 1s3 0 3 2l1 1h2v1l-2 1c-1 2-3 2-4 1h-3l-2-1-2 1h-3l-3-1-1 1h-1l-5 1v-1l1-1 2-2 1-1 2-2 1-1 2-1 3-2c3-2 3-3-2-8l-6-8-3-4-1-3-4-3h-1m-118 11v1h1v6h-1v-1l-1 1-1 1h-1l1 1h3l2-1-1-1v-2l-1-1v-1l1-1v-2l-1 1c0 1 0 1 0 0l-1-1m33 1c-1 2 0 3 2 2v-2c-1-1-1 0 0 0 1 1 0 2-1 2v-2h-1m20 3v2-4 2m-163-1 4 3a657 657 0 0 1-4-3m-105 1 1 1v2l1 2v-1 2l1 2c0-1 0 0 0 0l1 1v3-2 3l1 3v1l1 1v2l1 2v1l1 1a76 76 0 0 0 14-7l5-3v-4l-1-2c0-2-2-3-4-3l-1-1-2-1c-2 0-1-1 1-1l-1-1-11 1h-4l-1-1h-2l-1-1m16 3v-1 1m138 3v1l1-1v-1l-1 1m57 1v1l1-1c0-2 0-2-1 0m56-1v1c0 1 0 1 0 0v-1c0-1 0-1 0 0m-53 3v2l-1 1 2-3h-1m38 1 1 1v-2l-1 1m1 0-1 1c0-1 0-2 1-1m11 3-2 1 2-1 1-2 1-1-2 3m-54-2h1-1m-199 1-1 1-4 2 1-3h4m287 2-1 1 4-4-3 3m-88-1v3l1-3h-1c0 1 0 1 0 0s0-1 0 0m50 3-2 1-1 1 4-2h-1m-51 6v3a68 68 0 0 0 0-3m167-5v1h1l-1-1m-126 2h2-2m127 1 1 1v-2l-1 1m0 3 1 1v-2l-1 1m-93 2-2 2-3 2a61 61 0 0 1-12 6c-3 3-13 5-18 5h-3c2 1 11 0 13-1l5-2a93 93 0 0 0 21-12c1-1 1-2-1 0m-229 0h1v-1l-1 1m-3 1h1v-1l-1 1m28 0v1-1m-31 0 1 1h1l-2-1m327 1h1v-1l-1 1m-330 1h3l-1-1-2 1m-38 1v1-2 1m70-1v2c-1 0-1 0 0 0v1h-1l1 1 1-3-1-1m-34 0 1 1h1l-2-1m324 1c-1 1 0 2 4 6l4 3h2c4 0 6 1 5 3-1 1 0 1 0 0 3-1-1-4-5-3h-2l-3-2-3-4c-2-2-2-2-1-3v-1l-1 1m-327 1 1 1c2-1 2-2 0-2l-1 1m193 5c2 3 5 4 7 4l-2-1-5-3-2-2 2 2m-205 0h-1l-1 1h-3l2-1 2-1 1 1m48 0h1v-1l-1 1m1 3 1 1v-2l-1 1m97 0 3 1 1 1h2c1 0 1 0 0 0l-2-1-1-1h-3m7 3 2 1v-1h-2m194 1-4 2-3 1-2 1-2 1-2 1-3 1-4 2-3 1-3 2-2 1-3 2a338 338 0 0 1-23 13l-7 4a391 391 0 0 0-28 13l-5 2a625 625 0 0 0-33 8l-9 1a303 303 0 0 1-50-1 124 124 0 0 1-51-21l-13-10c-4-4-4-4 0 2l2 2 1 1h-1l-5 1c-13 4-12 4-13 3h-3c-2 1-3 1-3-1v-1l-2-1-1-2-1-2-1-2-2-3-2-2v-1l-1-1v-1l-1-1-2-2-1-2-1-2-1-2-2-3-2-3v1c1 1 1 3-1 3v3l-1 1v4l-1 4v3l-1 3v3h2l3 2 5 4a401 401 0 0 1 11 5l5-2c2-1 6-1 9 1l4 3c2 2 3 2 1 4l-3 1-1 1-1 2c-1 1 0 3 1 4 2 1 0 3-5 4l-4 2h-1l1 2 1 2c2 1 1 2-1 2a93 93 0 0 1-35-2 3241 3241 0 0 0-21-2h1l2 1h4l2 1h2l3 1h3l2 1h2l3 1 3 1h7l3 1h1s1 0 0 0l3 1h7s1 0 0 0h11l8-1 4-1h3l2-1h1-7l2-1 1-1 4-2 3-2h-1c-1 1-1 1-1-1v-1l-3-3v-2l1-2-1-1v-1l-3-5 3-2 5-4c3-4 2-4 8 0l6 4-3-3-3-2h-1v-1h1l1 1h1l1 1 2 1 2 2a89 89 0 0 1 10 6h1l3 2 3 1a193 193 0 0 0 26 8 202 202 0 0 0 104-12 539 539 0 0 1 47-24l4-2a98 98 0 0 1 9-5l5-3h1l3-2 6-2 4-2 1-1c2-1 4 0 3 1v2l1-1 1 1v-1l1-1 1-1 1-1h1-2c-1 1-1 0-1-1 1-2 1-2-3-1m5 0 1 1-1-1m-301 1 1 1v-1h-1m2 3c0 1 0 1 0 0v-1 1m91 1v1l3-1h-3m133 3 2 3 1 1h3l2 1h1l-1 1-2 1-2 2h-6l-1 1h-1l-1 1-1 1-2 1-2 1-2 1-4-1-5-1h-6l2-1 2-2a521 521 0 0 0 20-12c2 0 3 1 3 2m-126-1c1 0 1 2-1 2l-2 4-1 5v4l1-1h10l5 1c3 2 4 2 1-2l-1-2-1-2-3-3-8-7v1m-10 1h-1l-1 1h2l1-1v-1l-1 1m193 5-1 2 2-1-1-1m-3 3-1 1 2-1v-1l-1 1m-178 3h-1l1-1v1m171 2c-2 1-2 2-1 2l1-1 2-2-2 1m-5 4-1 1h-1v1l1-1h1v-1m-217 6v1l-1-1c-1-1-1-2 1 0m5 2h1-1l-1-1 1 1m194 4-1 1-2 2h1l1-1 1-1 1-1h-1m-184 3 3 2 2 2-2-2-3-2M6 295l1 1v-1s-1 0 0 0l-1-1v1m3 1 3 1s1 0 0 0v-1H9m72 0v1l1-1c1 0 1 0 0 0h-1m-66 1 4 2h2l-1-1h-2l-1-1h-2m154 1 1 1 2 1-2-1-1-1m-147 1 1 1 1-1h-2m151 3 2 2 1-1-2-2c-2-1-3-1-1 1m-1 3v1l1-1h-1m145 0 1 1h1l-2-1m-149 2v1l1-1h-1m-6 3h1l-1-1v1m147 0v1-1m-150 0 1 1v-1h-1m-3 2h2l-1-1-1 1m-3 0 1 1h1l-2-1m148 1v1l1-1h-1m-150 1h1l-1-1v1m-3 1h1v-1l-1 1m-20 0v1c-1 0-2 0-1-1h1m16 1h3l-1-1-2 1m129 5h1v-1l-1 1" fill="#696231"/>
    <path d="m164 82 2 1h2-1l-2-1h-1m44 5 2 1h2-2l-2-1h-1 1m-40 15h2c1 0 0 0 0 0h-2m-2 1-3 2-3 1-3 1-2 1-2 1-3 1-3 1-2-2-1-1h-2l3 2 1 2 1 2 2-1 5-3a140 140 0 0 0 14-7h-2m-34 22-6 5c-2 2-1 2 1 0l6-4 1-2h1c1-2 0-1-3 1m-13 12v2l1-1c0-2 0-2-1-1m-2 4-2 1-2 2-1 1v1l-1 1h-1l-1 2h-2l-4 5v2l-1 2c0 2 0 2 3-1a67 67 0 0 0 8-10 1168 1168 0 0 1 4-6m-18 10 1 3v-1l-1-3v1m-27 46v1h-1c0 2-1 1-1 0h-1l-1 2v1l-1 1-2 5v2l-1 5v14l1 4v1l-8 4v1h-1s-2 0-1 1l-1 1h3l2-1h1l1-1h2l1-1h2l1-1h1l2-1 2-1c1 0 5 0 4 1-1 0-1 0 0 0l1-1h1l1-1c2 0 2 0 1 1-1 0-1 0 0 0l2-2h1l2-1h3c3 0 4 0 3 1h4l2 1 1 1v2l-1 2v3c2 0 6 2 7 4l2 2 3 4 4 5a67 67 0 0 1 10 14l1 2c1 1 5 6 5 8l-1 3c-2 2 0 2 4 1l5-2 5-1c1-1 1-1-3-5-9-10-13-15-10-13a175 175 0 0 1 16 15l3 2 2 2h1l2 2 2 1 2 1 3 2 2 1 2 1 3 2 4 2h1l1 1 3 1 3 1 3 2 2 1h2c1 2 11 4 16 5l5 1h3l2 1 7 1h6a146 146 0 0 0 15 0h-1l-2-1h-3l-16-3-10-2a512 512 0 0 0-16-11c-5-3-20-19-25-26-1-2-2-2-3-2h-24c-2 1-3 0-4-3l-2-3a42 42 0 0 1-5-7l-2-4a68 68 0 0 0-4-5 178 178 0 0 0-21-27l1 2 1 1v3h1l2 2 1 2h1l-1 1v-1l-4-3-2-3-1-2h-1l-3-2-2-1-2-1v-1l-2-3h-1l-1-1-1-2-1-2-2-1h-1l-1-1-1-1-1-1-1-1v-1 1l-1 1-1-1v-1 1c0 2-2 1-2 0l-1-1v1l1 1h-3v-2h-1m195 3-7 4-3 4v2h1l1 2-2 3v-2c0-3-1-3-1 0-1 6-1 6 1 10 2 3 2 4 6 5l2 1h6l3-1 7-7c4-5 3-16-2-19-4-3-7-4-12-2m-36 0-3 6-2 4a74 74 0 0 0-5 15c-3 10-3 26 0 32l1 3c0 2 6 8 11 12l5 4 3 3 4 2 3 2v1l-1-1-2-1c-2 0-10-5-12-7-2-3-5-5-6-4l-1-1h-2l-7-1h-3c-2 0-2 0-3-2l-2-1c-2 0-2 1-1 2l2 2a80 80 0 0 0 16 15c5 5 23 6 29 3 2-2 6-1 10 1l5 1-1-1c-2-1-2-5 1-5h1l1-1c2-1 3-1 2-2s-7 0-9 2h-4l-3-1-7-3-8-5-4-2-3-2-2-2-3-4a163 163 0 0 0-6-8l-2-4v-8a80 80 0 0 1 6-33 168 168 0 0 1 2-11m36 8c1 1 0 3-2 3-3 1-4-1-1-3 1-2 3-2 3 0m-164 4v1l1-1h-1m73 5a96 96 0 0 0 18 16h2l-2-2-4-3-10-8c-5-6-9-8-4-3m93 3c2 1 1 2 0 2-2 0-2-1-2-2h2m-156 10 1 1h-1l-1-2 1 1m275 0-2 1-3 1a202 202 0 0 0-25 17l-9 6-3 3-2 2-4 4-1 1-9 10-3 4h-2l-2 1-4 2c-2 1-5 2-6 1l-2 1a262 262 0 0 1-13 7l-6 3-4 3a175 175 0 0 0-9 5l-2 1 2 1 2-1 5-1 2-1h2l10-3 2-1 2-1 3-1a203 203 0 0 0 22-13l9-9c2-3 5-6 8-7a1336 1336 0 0 1 27-12l2-2 3-2 5-2v-1l2-1c2 0 3 0 1-1-4-1-3-6 0-6l1-1 3 1c2 0 2 0 2-2l1-1-1-6h-4m-20 21-2 2-4 2-4 3-1 1c-3 2-3 1-1-1 5-5 11-8 12-7m-163 2-4 2a33 33 0 0 0-11 5l5-2h4l2-1 3-1v-1l1-1h1l-1-1m74 26h1c1 0 1 0 0 0h-1m-28 5h-1c-1 0-1 0 0 0h1m3 1-1 1-1-1h2m-104 2-1 1c-3 4-3 4 0 7l4 1h1l-1 1v3l1 1 3 3 1 1 2 1h4-1l-1 1h-1l-1 1-2 1h-1 3l4-1 1-1h2l1-1h1l2-1 3-1-2-3a1372 1372 0 0 0-22-14m-126 6h1-1m252 11 1 1 1-1h-2m-121 6h2-2m-2 1v1l1-1h-1" fill="#0d1406"/>
    <path d="m158 82 1 1v-1h-1m179 28 2 2 1 2h1l1 1v-1h-1l-2-3-1-1h-1m7 10 1 1v-1h-1m-106 0-2 2c-1 0-1 0 0 0 2-1 9-2 16-1h3l-17-1m107 3 1 2v-3l-1 1m1 5c0 2 1 2 1 1v-3l-1 2m2 5v1-2 1m0 4 1 2 1-2-1-1-1 1m-14 2 1 3v1l2 11a252 252 0 0 1 5 17 231 231 0 0 1 8 21l3 4 2 3 2 4 3 5c1 3 9 11 12 13 11 8 15 9 19 7h1l-1-1-1-1 1 1c1 1-1 2-3 2l-5-2a141 141 0 0 1-11-7l-2-4-2-2-6-7-1-2v-4h1c1-1 4 2 7 6l3 4a270 270 0 0 1 9 8v-1h-1l-1-2-2-3-3-3-1-1-1-2v-1l-1-1-1-1v-1l-1-1v-1l-1-2-1-1v-1l-1-1v-1l-1-1v-1l-1-2-1-1v2l1 2c0 1-1 2-3 1h-4c-4 1-4 0-12-20l-2-6a199 199 0 0 1-9-30m16 3v1l1-1c-1-2-1-2-1 0m0 4c1 2 2 2 2 1l-1-2-1 1m2 5v1l1-1c-1-2-1-2-1 0m1 4v2l1-1c0-2-1-2-1-1m1 4v2l1-3c-1-1-1 0-1 1m1 4c0 2 0 2 1 1l-1-2v1m1 4c0 2 1 2 1 0l-1-1v1m-231 2 2 2-2-2-2-2 2 2m232 2v2l1 2c0 1 1 2 1 0l-1-1v-2c0-2-1-3-1-1m-227 3 2 2-1-2-2-2 1 2m229 4v2l1-1-1-2v1m1 3v2l1 2c0 2 1 2 1 0v-1l-1-2c0-2-1-2-1-1m2 7v1c0 2 1 0 1-1h-1m-98 21 1 1c1 0 2 0 1-1h-2m118 10 4 5h2l-2-2-2-1-1-1-1-1m-128 2 3 5v-1l-1-1-1-3h-1m132 18c-2 1-2 3 2 6l2 2 1 2 4-1h4v1-1h-1l-1-2-2-3-3-3-2-1h-4m4 1 1 3-3-1-2-1 1-1h3m5 7-1-1h1v1m-17 23c-1 1-1 1 1 1l1-1h-2m-7 5v2l1-1v-1h-1m-3 2 1 1v-1h-1m-4 3 1 1v-1h-1m-3 3c0 1 0 1 0 0h1v-1h-1v1m-4 2v1h1v-1h-1m-177 21v1h1l2 1 1 1h3l-4-2-1-1h-2m7 3 1 1h2v1h2v-1l-2-1h-3m7 3h1l1 1h2l1 1h3l-1-1h-2l-1-1h-4m9 3h1v-1l-1 1m3 1h2l1 1h2l2 1h3l3 1h2l4 1h5l-5-1-3-1h-2l-3-1h-3l-3-1h-5m25 4c-1 1-1 1 2 1h1l-1-1h-2m6 2h11-11" fill="#98a890"/>
    <path d="M94 77c1 1 1 0 0 0m11 1h16-16m23 1 2 1 2-1h-4m-46 1-1 1h-1l-2 1-1 1h-1l-1 1s-1 0 0 0l-1 1h-1c1 1 0 1-1 1h-1l-1 1h-1v1h-1l-1 1h-1l-2 2-1 1h-2l2 1c2 1 3 0 9-4l4-2 6-5v-1l1-1h-1m58 0h1-1M72 92l-2 1-1 1-6 3-2 1-2 1-2 1-2 1-3 3v1h-5l-5-1h-1l-1 1-1 1h-2l-1 1-1 1h-1l-1 1h-1l-1 1h-1l-1 1h-1l-1 1h-1l-1 1h-1l-1 1h-1l-1 1-2 1-1 1-2 1-3 2h-2l-1 1v1H9v2l2 1h3v-1l1 1 4-1 4-1 1-1 4 1 1-1 1 1h2v-1h2l2-1 3-1 1-1 5-1h9c9-1 19 0 25 1 12 4 15 5 17 8s2 2 3-3l1-1 2-3 1-3 2-3c1-3 4-6 6-6l3-1 4-2 7-4-2-1h-3v4c-2 0-2 0-1-1v-3l-1 1h-1l-1-1v-2l-1-1-5-1-5-1h-1l-1-1-2 1h-7c-1-2-4-2-4-1h-4l-3-1h-3l-2-1-4-1-2 1m46 0 5 5a141 141 0 0 1 4 2v-2l4 1h6l2-1h-2c-2 0-5-2-5-4h-1l-2-1-2 3-4-1-1-1h-2l-2-1m-73 10h-1l-1 1h2l1-1h1l-1-1-1 1m72 2v1l-1-1h1s1 0 0 0m-80 4h6l4 1a2157 2157 0 0 0 2 2l-13-1v-2h1m-2 3s-3 3-4 2l2-2h2m-6 3-4 2v-1l3-1h1c1 0 1 0 0 0m-5 3h-2 2m-17 7h2-2m27 20h-1v3h1l-1 1-1 2h1l1 2c1-1 2 0 3 1v2l1 2 1 1 5 1 1 1 1-1v-1h-1v-2l-1-2 2 1 1 2h1l2 2 2 1 1 1 4 1 2 1 4 1v-1l-1-1h-2c-2 0-4 0-6-2l-5-4-4-3a74 74 0 0 1-9-9c-1-1-2-2-2 0m-3 11v2l-1 1h1c-1 1 1 2 1 1h1l1-2-1-1-1-1h-1m-3 5-1 2v1l-1 1-1 2-1 2-1 1v1l-1 1c-1-1-1 1-1 1h3l2 1 2 1 3 1h1l1 1h2v1c1 1 1 0 1-2l1-2-2-3a51 51 0 0 1-5-4c-2-1-2-2 0-2l1 1h4l-1-1-3-4v-1h-1l-2 1m22 3v3l3-3h-3m-16 9h-1s-1 0 0 0h1m-14 20v1-1h1-1m3 1h-1l-1 1c1 0 1 0 0 0h-1v6h-2v2c0 2 0 2 1 1 0 0 1 0 0 0l-1 1v5-1l1 1v2h6l1-2-1-1-1-2c-2-1-2-5 0-4h1v-9h-2m125 5c-3 0-6 1-6 3h-1l-1 1-1 2-1 2h-2l-2 2h-4l-13-7-7-2h-1v1l1 2h-1l1 1c1 2 2 2 1 3l2 2 2 2 2 1 5 3 4 3 5 3c0 1-12-4-16-7l-2-1-2-1h-2l-3 1v4l1 2 2 2 2 3 2 2 1 1 3 4 1 1 2 2 2 2 1 2-1 1v-1l-1-1 1 2 1 1v-1h1l1 2 1 2v1h1l-1 1 1 1 1 2h1v1l1-1v1c-1 1 1 3 2 4l1 1 2 4 1 3 4 2h4l5-1 2-1h-1l-2-6v-1l-1-6v-5l-1-1-2-2c-1 0-2-2-2-7v-4l1-2 2-2 1-2h1l4-1h2l-1-1 1-2 2-3v-1l1-1 1-2 1-2 1-2 1-1 5 3c1 0 0 0 0 0l-1-1h1l-1-1-1-1 1 1a394 394 0 0 0-11-9h-5m7 0 1 1 1 1-1-1-1-1m4 4 2 2-2-2-1-2 1 2m-133 1 2 2 2-1h2l-1-1-3-1h-2v1m94 6h1l15 10c3 3 1 3-5-2l-6-3a71 71 0 0 1-9-6l-1-2 5 3m-96 14c-1 1-2 1-1 2l2-1c1-1 1-1-1-1m109 11 1 1h2l2 2c2 0 2 0 1 1l-2-1h-1l-12-4-1-1c1-1 9 2 10 2m-106 1-2 2v1l-1 1 1 2v2l1 4-1 1-1 2v4h2l4-2 5-4v-1c-2 0-7-5-7-6l1-1 1-1v-2c0-3-1-4-3-2m71 48-1 3-1 2-11 10-1-1H56l-4-1h-1c-1 0-1 0 0 0 1 1 1 1-1 1l-1-1c1 0 1 0 0 0l-1 1 1-1h-3l-3-1h-1v1l-1-1h-6l-5-1h-3l-3-1-3-1h-8l-4-1H4l-1 1H0h1l2 1h1l1 1h3l2 1 6 1a97 97 0 0 1 11 3l4 1a1022 1022 0 0 0 71 15h2l-1-3 2-1h2l2-1 2-1 1-1c1-1 2-2 1-3l-1-2v-6c2-2 1-3 0-2l-2 1v1l-2-1h1c0 1 0 1 0 0l1-1v-2h-1l-1 1-1-2c1-1 0-1-1-1l-2-1h-1l-2-5v-2c-2-2-3-2-3 0m-97 6-1 1h2v-1H1m108 1 1 1h1c0 2 1 2 1 1v-1l-3-1" fill="#bc644c"/>
  </g>
</svg>
